<?xml version="1.0" encoding="UTF-8" standalone="no"?>
<!-- Created with Inkscape (http://www.inkscape.org/) -->

<svg
   width="744"
   height="385"
   id="svg2443"
   version="1.0"
   xmlns="http://www.w3.org/2000/svg"
   xmlns:svg="http://www.w3.org/2000/svg"
   xmlns:rdf="http://www.w3.org/1999/02/22-rdf-syntax-ns#"
   xmlns:cc="http://creativecommons.org/ns#"
   xmlns:dc="http://purl.org/dc/elements/1.1/">
  <defs
     id="defs2445" />
  <metadata
     id="metadata2448">
    <rdf:RDF>
      <cc:Work
         rdf:about="">
        <dc:format>image/svg+xml</dc:format>
        <dc:type
           rdf:resource="http://purl.org/dc/dcmitype/StillImage" />
      </cc:Work>
    </rdf:RDF>
  </metadata>
  <g
     id="layer1">
    <g
       transform="translate(-2061.8232,354.53777)"
       id="g2453">
      <g
         transform="matrix(1.2195138,0,0,1.2195138,-331.82446,39.920662)"
         id="g3270"
         style="fill:#000000">
        <path
           d="m 1985.5806,-302.141 h 564.5724 v 272.844597 h -564.5724 z m -8.9001,281.697687 h 582.3726 V -310.9941 h -582.3726 z m 549.8801,-259.517847 c 0,0 -34.5176,0 -67.5283,0 -2.7315,0 -5.4155,0.32961 -8.0996,0.32961 -31.1272,0 -93.4286,13.51509 -93.4286,69.36489 0,49.35125 52.8361,63.61979 65.0328,66.77486 19.6837,5.0387 55.614,10.03037 55.614,40.1685 0,35.883287 -36.4954,32.681077 -36.4954,32.681077 l -8.335,0.09422 h -66.3512 l 7.1579,19.58976 c 0,0 50.9052,0 71.6724,0 4.6623,0 7.8172,-0.09417 8.5235,-0.09417 31.1273,0 69.977,-25.00526 69.977,-68.846837 0,-40.82781 -34.4234,-57.96891 -65.0798,-63.99653 -34.8942,-6.87524 -51.423,-16.576 -51.423,-38.42618 0,-22.32106 24.6758,-37.71978 42.7114,-37.71978 2.2132,0 5.1327,-0.32961 8.5236,-0.32961 20.7671,0 59.5699,0 59.5699,0 z m -518.5648,-0.37675 58.6751,229.379667 h 53.3539 c 0,0 -3.9555,-8.85304 -3.9555,-21.85013 0,-8.288 1.648,-12.80875 1.6954,-12.99709 0.047,-0.18835 46.7139,-194.532447 46.7139,-194.532447 h -32.728 c 0,0 5.2739,20.06073 1.7892,34.28219 -3.4846,14.2214 -29.9027,124.64954 -29.9027,124.64954 l -40.7336,-158.93173 z m 175.1779,0 v 151.06756 l -10.9722,15.77542 h 10.9722 v 62.536687 h 51.4235 v -62.536687 h 15.1162 c 24.0163,0 38.6143,-11.63142 38.6143,-11.63142 0,-1.88362 0,74.168107 0,74.168107 h 51.4235 V -280.33791 h -51.4235 v 145.41663 h -53.7305 v -145.41663 h -51.4235"
           id="path3090"
           style="fill:#000000;fill-opacity:1;fill-rule:nonzero;stroke:none" />
      </g>
    </g>
  </g>
</svg>
